<svg width="24" height="32" viewBox="0 0 24 32" fill="none" xmlns="http://www.w3.org/2000/svg">
<path fill-rule="evenodd" clip-rule="evenodd" d="M12.5008 7.52031C13.9856 7.52031 15.8448 6.64991 16.9328 5.46591C17.936 4.39071 18.6672 2.90911 18.6672 1.42751C18.6672 1.22431 18.6464 1.02111 18.6032 0.854706C16.9536 0.909106 14.968 1.81791 13.7968 3.03871C12.88 3.98271 12 5.46751 12 6.96511C12 7.18751 12.0416 7.40991 12.064 7.48351C12.168 7.50271 12.3344 7.52031 12.5024 7.52031H12.5008ZM23.2448 11.8355C21.2608 8.92991 18.2416 8.85471 17.4096 8.85471C16.104 8.85471 14.952 9.31871 13.9856 9.70751C13.2896 9.98911 12.6896 10.2307 12.1984 10.2307C11.6544 10.2307 11.0336 9.97471 10.3424 9.69151C9.4704 9.33471 8.4864 8.92991 7.4016 8.92991C3.7376 8.92991 0 12.0275 0 17.8195C0 21.4515 1.3792 25.2531 3.0784 27.7187C4.5504 29.8019 5.8352 31.5219 7.6656 31.5219C8.5328 31.5219 9.1728 31.2435 9.8448 30.9507C10.592 30.6243 11.3824 30.2787 12.576 30.2787C13.7536 30.2787 14.464 30.5987 15.1536 30.9107C15.8016 31.2019 16.4304 31.4835 17.4096 31.4835C19.3936 31.4835 20.7328 29.6307 21.9792 27.7955C23.3952 25.6931 23.9808 23.6675 24 23.5523C23.888 23.5139 20.072 21.9475 20.072 17.5139C20.072 13.9379 22.6736 12.2179 23.1712 11.8883L23.2448 11.8355Z" fill="#1C1D1F"/>
</svg>