<svg width="32" height="33" viewBox="0 0 32 33" fill="none" xmlns="http://www.w3.org/2000/svg">
<g clip-path="url(#clip0_1_15)">
<path fill-rule="evenodd" clip-rule="evenodd" d="M31.36 16.5507C31.36 15.4163 31.2576 14.3267 31.0688 13.2787H16V19.4675H24.6112C24.4329 20.4465 24.058 21.3791 23.5091 22.2091C22.9602 23.039 22.2487 23.7491 21.4176 24.2963V28.3123H26.5888C29.6144 25.5251 31.36 21.4227 31.36 16.5507Z" fill="#4285F4"/>
<path fill-rule="evenodd" clip-rule="evenodd" d="M16 32.1875C20.32 32.1875 23.9408 30.7555 26.5888 28.3107L21.4176 24.2963C19.9856 25.2563 18.1536 25.8243 16 25.8243C11.832 25.8243 8.30399 23.0083 7.04639 19.2275H1.70239V23.3715C3.03361 26.0223 5.07579 28.2507 7.60068 29.8076C10.1256 31.3644 13.0337 32.1884 16 32.1875Z" fill="#34A853"/>
<path fill-rule="evenodd" clip-rule="evenodd" d="M7.048 19.2275C6.728 18.2675 6.5456 17.2435 6.5456 16.1875C6.5456 15.1315 6.728 14.1075 7.048 13.1475V9.00351H1.7024C0.582423 11.2326 -0.000575093 13.6928 4.25687e-07 16.1875C4.25687e-07 18.7699 0.6176 21.2115 1.7024 23.3715L7.0464 19.2275H7.048Z" fill="#FBBC05"/>
<path fill-rule="evenodd" clip-rule="evenodd" d="M16 6.5507C18.3488 6.5507 20.4576 7.3587 22.1168 8.9443L26.7056 4.3555C23.9344 1.7715 20.312 0.1875 16 0.1875C9.74401 0.1875 4.33441 3.7715 1.70081 9.0035L7.04641 13.1475C8.30561 9.3651 11.832 6.5507 16 6.5507Z" fill="#EA4335"/>
</g>
<defs>
<clipPath id="clip0_1_15">
<rect width="32" height="32" fill="white" transform="translate(0 0.1875)"/>
</clipPath>
</defs>
</svg>